<?xml version="1.0" standalone="no"?>
<!DOCTYPE svg PUBLIC "-//W3C//DTD SVG 20010904//EN"
 "http://www.w3.org/TR/2001/REC-SVG-20010904/DTD/svg10.dtd">
<svg version="1.0" xmlns="http://www.w3.org/2000/svg"
 width="626.000000pt" height="626.000000pt" viewBox="0 0 626.000000 626.000000"
 preserveAspectRatio="xMidYMid meet">

<g transform="translate(0.000000,626.000000) scale(0.100000,-0.100000)"
fill="#000000" stroke="none">
<path d="M3043 5878 c-6 -7 -21 -33 -34 -58 -22 -41 -24 -57 -24 -180 1 -157
22 -250 100 -443 94 -229 205 -420 617 -1062 258 -403 168 -280 -236 320 -96
143 -205 316 -241 385 -93 173 -184 310 -232 348 -67 52 -141 42 -169 -23 -18
-44 -18 -77 1 -150 32 -122 122 -294 298 -567 56 -87 111 -173 121 -191 11
-18 47 -75 81 -127 34 -52 106 -165 160 -250 54 -85 119 -186 144 -225 24 -38
50 -79 56 -90 6 -11 37 -60 70 -110 32 -49 71 -110 85 -135 15 -25 60 -97 100
-160 90 -142 138 -221 203 -330 27 -47 107 -170 176 -274 l126 -188 47 51
c115 125 162 332 123 537 -34 180 -104 341 -272 635 -84 145 -258 456 -533
949 -26 47 -89 159 -140 250 -51 91 -136 244 -190 340 -54 96 -130 234 -170
305 -40 72 -113 202 -163 290 -49 88 -90 161 -92 163 -1 1 -7 -3 -12 -10z"/>
<path d="M2735 4610 c-8 -16 -15 -32 -15 -37 0 -10 25 27 33 50 10 27 -1 20
-18 -13z"/>
<path d="M2689 4519 c-19 -37 -19 -41 -4 -35 15 5 16 4 5 -9 -7 -8 -8 -15 -3
-15 14 0 34 48 22 52 -6 2 -7 11 -4 21 4 9 12 14 18 10 6 -3 7 -1 3 5 -11 18
-14 15 -37 -29z"/>
<path d="M2415 4318 c42 -141 170 -399 325 -652 l103 -168 19 38 c10 20 18 43
18 50 0 7 3 14 8 16 11 5 63 108 55 108 -5 0 -3 4 2 8 20 13 55 83 49 94 -4 7
-2 8 4 4 18 -11 15 27 -4 50 -8 10 -12 13 -8 5 5 -9 3 -12 -5 -7 -6 4 -9 11
-6 16 8 13 -16 60 -31 60 -6 0 -15 7 -18 16 -4 9 -2 13 5 8 8 -4 7 0 0 15 -7
11 -16 21 -22 21 -6 0 -7 5 -4 10 3 6 0 10 -9 10 -17 0 -16 -21 3 -44 11 -13
11 -16 -2 -16 -8 0 -18 11 -21 25 -8 30 -41 34 -49 5 -3 -14 -14 -20 -31 -20
-19 0 -26 -5 -26 -20 0 -13 -7 -20 -20 -20 -11 0 -20 -4 -20 -9 0 -5 -8 -7
-19 -4 -21 5 -32 -23 -26 -72 3 -28 3 -29 -11 -11 -8 11 -14 25 -14 32 0 7 -6
19 -14 27 -36 36 -187 323 -215 410 -13 39 -27 53 -16 15z m305 -457 c0 -6 -4
-13 -10 -16 -5 -3 -10 1 -10 9 0 9 5 16 10 16 6 0 10 -4 10 -9z"/>
<path d="M2232 3662 c-146 -266 -313 -523 -430 -662 -113 -135 -214 -226 -236
-213 -6 3 -8 3 -4 -1 10 -12 -15 -34 -31 -28 -8 3 -12 1 -9 -4 9 -13 -59 -11
-72 2 -8 8 -8 18 1 36 8 19 8 30 0 44 -8 14 -11 15 -10 4 3 -29 -1 -41 -11
-35 -6 4 -7 -1 -3 -11 4 -11 2 -15 -4 -11 -6 4 -8 -3 -5 -20 4 -21 2 -25 -11
-20 -12 4 -14 2 -10 -10 5 -12 3 -14 -7 -8 -8 5 -11 4 -7 -3 9 -14 -3 -43 -14
-36 -5 3 -9 -1 -9 -10 0 -18 79 -36 163 -36 218 1 426 129 611 377 80 108 239
370 231 383 -3 5 0 12 7 17 7 4 20 17 28 27 13 18 13 19 0 12 -9 -5 -8 -2 2 7
14 11 15 16 5 27 -9 10 -9 11 2 5 9 -5 7 1 -4 19 -10 14 -22 26 -27 26 -5 0
-7 4 -4 9 8 12 -21 34 -34 26 -5 -3 -10 -13 -10 -21 0 -8 -4 -14 -8 -14 -12 0
-13 53 -1 82 10 24 7 34 -15 73 -15 25 -28 45 -29 45 -1 0 -21 -35 -45 -78z"/>
<path d="M2327 3599 c7 -7 15 -10 18 -7 3 3 -2 9 -12 12 -14 6 -15 5 -6 -5z"/>
<path d="M3296 3555 c-16 -12 -17 -15 -4 -15 9 0 18 7 22 15 7 18 6 18 -18 0z"/>
<path d="M3217 3428 c-19 -35 -90 -169 -157 -298 -130 -249 -305 -569 -373
-684 l-41 -69 28 -51 c16 -28 46 -84 68 -123 22 -40 42 -73 46 -73 14 1 114
179 106 191 -4 7 -3 10 3 6 5 -3 18 8 28 26 10 18 27 47 38 66 12 19 15 31 8
26 -9 -5 -12 -3 -9 6 3 8 10 14 16 14 5 0 14 4 19 9 5 5 3 6 -4 2 -8 -4 -13
-2 -13 6 0 8 -11 15 -25 16 -14 1 -25 -3 -25 -8 0 -6 -9 -10 -20 -10 -14 0
-20 7 -20 23 l0 22 -19 -24 -18 -24 0 26 c0 16 4 24 10 20 6 -4 8 0 4 9 -3 9
1 28 10 44 8 16 26 56 40 89 14 33 33 78 43 100 291 665 311 713 300 720 -5 3
-24 -23 -43 -57z"/>
<path d="M3361 3075 c-22 -36 -41 -68 -41 -70 0 -2 -18 -32 -40 -66 -38 -60
-39 -62 -24 -91 12 -23 12 -28 2 -22 -21 13 -32 13 -46 -2 -7 -8 -8 -14 -2
-14 19 0 10 -25 -26 -65 -19 -22 -42 -56 -50 -75 -25 -55 -31 -65 -43 -62 -6
1 -11 -7 -11 -19 0 -11 -4 -17 -10 -14 -18 11 -11 -11 17 -51 14 -21 49 -77
78 -124 28 -47 100 -164 160 -260 59 -96 138 -224 175 -285 37 -60 87 -142
111 -182 24 -39 80 -124 124 -188 l80 -117 47 51 c97 106 143 251 135 426 -6
146 -43 280 -126 458 l-40 88 19 37 c10 20 30 62 43 92 22 51 22 56 7 57 -17
2 -40 -34 -40 -62 0 -8 -4 -15 -8 -15 -17 0 -33 -51 -22 -65 8 -10 8 -15 -1
-21 -8 -4 -9 -3 -5 4 4 7 1 12 -6 12 -11 0 -179 285 -366 623 l-49 88 -42 -66z
m529 -535 c-6 -12 -14 -19 -17 -17 -2 3 1 15 7 27 6 12 14 19 17 17 2 -3 -1
-15 -7 -27z"/>
<path d="M3916 2633 c-6 -14 -5 -15 5 -6 7 7 10 15 7 18 -3 3 -9 -2 -12 -12z"/>
<path d="M2225 2490 c3 -5 8 -10 11 -10 2 0 4 5 4 10 0 6 -5 10 -11 10 -5 0
-7 -4 -4 -10z"/>
<path d="M2255 2481 c5 -18 4 -22 -5 -16 -15 9 -11 1 30 -60 72 -106 357 -563
468 -750 69 -115 129 -214 133 -219 7 -7 37 50 131 249 9 20 9 20 -6 1 -15
-19 -16 -19 -16 8 0 19 4 25 13 20 8 -5 8 -3 -2 9 -15 18 -31 14 -31 -8 0 -8
-11 -17 -25 -21 -15 -4 -22 -11 -18 -18 3 -6 1 -6 -8 2 -20 19 -39 14 -39 -9
0 -26 -39 25 -459 598 -30 40 -58 70 -64 66 -6 -3 -7 -1 -3 5 3 6 -19 46 -50
89 -31 43 -53 67 -49 54z"/>
<path d="M2940 1821 c0 -6 4 -13 10 -16 6 -3 7 1 4 9 -7 18 -14 21 -14 7z"/>
<path d="M3420 1703 c-168 -294 -288 -479 -398 -615 -83 -102 -209 -221 -223
-212 -7 4 -9 3 -6 -3 10 -16 -20 -36 -44 -30 -16 4 -18 3 -8 -9 9 -11 7 -14
-15 -14 -18 0 -25 -4 -20 -12 5 -7 2 -9 -9 -5 -9 3 -17 1 -19 -4 -5 -16 -37 1
-51 27 -12 24 -13 23 -40 -31 l-27 -55 27 -12 c45 -19 228 -16 303 6 101 28
120 37 188 83 34 24 64 43 66 43 7 0 39 -126 51 -202 9 -57 9 -87 1 -112 -11
-36 -40 -53 -61 -36 -25 21 -10 -47 20 -93 l32 -47 47 50 c57 61 101 151 122
251 19 88 14 253 -11 342 l-16 58 59 87 c33 48 85 132 117 187 32 55 67 115
78 134 12 19 16 31 10 28 -7 -5 -9 0 -6 14 4 14 8 17 13 8 6 -8 11 -5 20 11 8
15 8 20 1 16 -7 -5 -11 2 -11 16 0 19 2 20 11 8 8 -12 9 -10 7 10 -2 18 -9 25
-25 25 -12 0 -26 5 -30 9 -5 5 -2 6 7 1 12 -7 13 -6 2 6 -11 11 -14 12 -21 0
-5 -7 -17 -11 -27 -9 -11 2 -24 -3 -31 -12 -8 -9 -12 -11 -13 -3 0 6 5 15 10
18 6 3 10 14 10 24 0 10 7 24 15 31 9 7 13 15 11 17 -2 3 0 17 5 32 8 23 6 35
-13 64 -13 20 -26 36 -29 37 -3 0 -39 -57 -79 -127z m-809 -900 c-12 -20 -14
-14 -5 12 4 9 9 14 11 11 3 -2 0 -13 -6 -23z m9 -33 c0 -5 -5 -10 -11 -10 -5
0 -7 5 -4 10 3 6 8 10 11 10 2 0 4 -4 4 -10z m544 -296 c3 -8 2 -12 -4 -9 -6
3 -10 1 -10 -5 0 -6 -4 -8 -10 -5 -6 4 -5 11 3 20 15 18 14 18 21 -1z"/>
<path d="M2170 1770 c-25 -22 -51 -38 -57 -35 -7 2 -12 -1 -10 -7 2 -11 -2
-12 -65 -24 -25 -4 -38 -3 -38 4 0 6 -9 16 -20 22 -16 9 -19 8 -13 -6 4 -12 3
-15 -5 -10 -8 5 -10 1 -5 -10 4 -12 3 -15 -5 -10 -11 7 -17 -6 -12 -29 1 -5
-6 -15 -15 -21 -26 -20 46 -38 150 -39 89 0 225 31 240 55 7 11 -80 150 -92
150 -5 -1 -28 -19 -53 -40z"/>
<path d="M1992 1765 c-2 -19 2 -35 7 -35 5 0 8 13 7 30 -3 42 -12 45 -14 5z"/>
<path d="M3520 1644 c0 -8 5 -12 10 -9 6 3 10 10 10 16 0 5 -4 9 -10 9 -5 0
-10 -7 -10 -16z"/>
<path d="M3100 540 c0 -5 7 -10 16 -10 8 0 12 5 9 10 -3 6 -10 10 -16 10 -5 0
-9 -4 -9 -10z"/>
</g>
</svg>
